<?xml version="1.0" encoding="UTF-8"?>
<svg xmlns="http://www.w3.org/2000/svg" xmlns:xlink="http://www.w3.org/1999/xlink" width="958.660119pt" height="555.558564pt" viewBox="0 0 958.660119 555.558564" version="1.1">
<g id="surface1">
<path style=" stroke:none;fill-rule:nonzero;fill:rgb(0%,0%,0%);fill-opacity:1;" d="M 815.285156 7.582031 C 807.285156 17.785156 803.785156 23.785156 803.785156 27.382812 L 803.886719 30.382812 L 805.886719 27.882812 C 809.585938 23.285156 822.785156 2.382812 822.785156 1.082031 C 822.785156 -1.316406 821.1875 0.0820312 815.285156 7.582031 Z M 815.285156 7.582031 "/>
<path style=" stroke:none;fill-rule:nonzero;fill:rgb(0%,0%,0%);fill-opacity:1;" d="M 905.085938 0.484375 C 904.386719 0.785156 903.785156 1.683594 903.785156 2.382812 C 903.785156 4.082031 906.886719 5.183594 908.1875 3.882812 C 908.6875 3.382812 911.386719 2.882812 913.988281 2.882812 C 921.1875 2.882812 920.488281 5.484375 911.386719 12.984375 C 904.386719 18.683594 900.886719 23.582031 902.1875 25.683594 C 903.085938 27.183594 918.1875 29.082031 922.488281 28.285156 C 932.085938 26.582031 932.488281 23.484375 923.085938 24.382812 C 914.585938 25.183594 908.285156 23.984375 908.285156 21.582031 C 908.285156 20.582031 911.1875 17.382812 914.785156 14.582031 C 922.488281 8.382812 924.386719 5.382812 922.386719 2.382812 C 921.285156 0.683594 919.785156 0.382812 913.6875 0.183594 C 909.585938 0.0820312 905.6875 0.285156 905.085938 0.484375 Z M 905.085938 0.484375 "/>
<path style=" stroke:none;fill-rule:nonzero;fill:rgb(0%,0%,0%);fill-opacity:1;" d="M 591.988281 6.882812 C 585.386719 9.582031 568.285156 24.984375 564.585938 31.582031 C 562.886719 34.484375 561.1875 37.183594 560.6875 37.484375 C 559.285156 38.285156 559.585938 40.882812 561.1875 40.882812 C 561.886719 40.882812 563.285156 41.984375 564.1875 43.382812 C 566.085938 46.183594 568.585938 46.582031 572.6875 44.382812 C 575.6875 42.882812 577.085938 39.984375 575.785156 37.882812 C 575.386719 37.183594 573.488281 36.382812 571.6875 35.984375 C 569.085938 35.484375 568.1875 34.683594 567.988281 32.882812 C 567.6875 30.984375 569.488281 28.683594 577.488281 21.082031 C 582.886719 15.882812 589.1875 10.785156 591.585938 9.683594 C 593.886719 8.683594 595.585938 7.382812 595.285156 6.785156 C 594.886719 6.285156 594.585938 5.882812 594.488281 5.984375 C 594.386719 5.984375 593.285156 6.382812 591.988281 6.882812 Z M 591.988281 6.882812 "/>
<path style=" stroke:none;fill-rule:nonzero;fill:rgb(0%,0%,0%);fill-opacity:1;" d="M 451.085938 14.984375 C 448.6875 15.683594 447.6875 16.683594 446.988281 19.183594 C 446.488281 20.882812 444.886719 24.183594 443.386719 26.382812 C 441.785156 28.683594 440.785156 31.285156 440.988281 32.785156 C 441.285156 34.882812 442.085938 35.382812 446.585938 36.484375 C 452.988281 37.882812 454.386719 38.984375 452.988281 41.484375 C 451.1875 44.882812 446.6875 48.285156 443.988281 48.484375 C 442.085938 48.484375 441.1875 49.183594 440.988281 50.582031 C 440.285156 55.183594 446.6875 53.882812 451.886719 48.183594 C 459.488281 40.082031 459.085938 36.882812 450.285156 34.382812 C 447.285156 33.484375 444.585938 32.382812 444.386719 31.984375 C 443.585938 30.785156 446.886719 25.382812 450.585938 21.382812 C 453.886719 17.882812 454.085938 17.882812 462.285156 17.882812 C 471.488281 17.882812 473.785156 17.382812 473.785156 15.285156 C 473.785156 14.183594 471.785156 13.882812 464.085938 13.984375 C 458.6875 13.984375 452.886719 14.484375 451.085938 14.984375 Z M 451.085938 14.984375 "/>
<path style=" stroke:none;fill-rule:nonzero;fill:rgb(0%,0%,0%);fill-opacity:1;" d="M 331.285156 19.082031 C 330.386719 21.484375 326.488281 27.484375 322.6875 32.382812 C 318.988281 37.382812 315.6875 42.582031 315.585938 43.882812 C 315.285156 46.382812 315.285156 46.382812 323.085938 46.082031 C 331.785156 45.785156 331.785156 45.785156 329.285156 52.882812 C 327.585938 57.683594 327.285156 62.882812 328.6875 62.882812 C 329.988281 62.882812 335.785156 50.582031 336.488281 46.382812 C 337.488281 40.382812 336.785156 39.882812 329.585938 41.484375 C 318.785156 43.785156 318.585938 43.382812 325.6875 33.683594 C 332.6875 24.082031 336.6875 14.882812 333.886719 14.882812 C 333.386719 14.882812 332.285156 16.785156 331.285156 19.082031 Z M 331.285156 19.082031 "/>
<path style=" stroke:none;fill-rule:nonzero;fill:rgb(0%,0%,0%);fill-opacity:1;" d="M 684.085938 16.785156 C 682.085938 17.984375 680.785156 19.683594 680.785156 20.882812 C 680.785156 23.382812 681.285156 23.382812 684.488281 20.882812 C 687.285156 18.683594 693.585938 18.183594 696.886719 19.882812 C 699.585938 21.382812 699.285156 25.484375 696.285156 28.484375 C 693.285156 31.484375 683.488281 36.183594 681.085938 35.683594 C 680.1875 35.484375 679.085938 34.285156 678.6875 32.882812 L 678.085938 30.382812 L 677.085938 32.882812 C 674.386719 39.382812 680.785156 40.785156 690.585938 35.882812 C 701.386719 30.382812 705.988281 22.082031 700.785156 17.382812 C 697.585938 14.484375 688.1875 14.183594 684.085938 16.785156 Z M 684.085938 16.785156 "/>
<path style=" stroke:none;fill-rule:nonzero;fill:rgb(0%,0%,0%);fill-opacity:1;" d="M 9.1875 22.882812 C 3.488281 23.683594 1.785156 24.484375 1.785156 26.082031 C 1.785156 26.785156 3.988281 26.882812 8.585938 26.484375 C 12.386719 26.082031 16.1875 26.082031 17.085938 26.484375 C 20.085938 27.582031 19.085938 31.785156 15.085938 35.183594 C 7.085938 41.984375 -0.414062 49.785156 -0.0117188 51.082031 C 0.386719 52.082031 4.285156 52.484375 16.386719 52.582031 C 31.785156 52.882812 35.785156 52.285156 34.386719 49.984375 C 33.886719 49.285156 29.285156 48.882812 21.386719 48.882812 C 14.6875 48.882812 8.785156 48.582031 8.386719 48.183594 C 7.988281 47.785156 10.988281 44.285156 15.1875 40.382812 C 23.886719 32.382812 25.085938 29.484375 21.585938 25.582031 C 18.785156 22.582031 15.988281 21.984375 9.1875 22.882812 Z M 9.1875 22.882812 "/>
<path style=" stroke:none;fill-rule:nonzero;fill:rgb(0%,0%,0%);fill-opacity:1;" d="M 185.1875 24.785156 C 183.988281 25.285156 182.6875 26.183594 182.285156 26.785156 C 181.285156 28.484375 184.6875 29.285156 187.1875 27.984375 C 190.085938 26.382812 194.785156 28.082031 194.785156 30.785156 C 194.785156 33.183594 192.886719 35.183594 188.886719 36.882812 C 187.085938 37.582031 185.785156 38.882812 185.785156 39.882812 C 185.785156 41.382812 186.886719 41.683594 192.785156 42.082031 C 196.6875 42.285156 200.285156 42.984375 200.988281 43.785156 C 204.285156 47.082031 188.6875 53.882812 177.6875 53.882812 C 171.585938 53.882812 170.1875 54.984375 173.988281 56.984375 C 177.988281 59.183594 188.488281 57.582031 196.488281 53.484375 C 207.886719 47.785156 209.386719 43.484375 201.488281 39.582031 C 197.988281 37.785156 197.886719 37.683594 198.488281 32.882812 C 198.988281 28.582031 198.785156 27.984375 196.488281 26.484375 C 193.386719 24.382812 187.988281 23.582031 185.1875 24.785156 Z M 185.1875 24.785156 "/>
<path style=" stroke:none;fill-rule:nonzero;fill:rgb(0%,0%,0%);fill-opacity:1;" d="M 905.785156 58.582031 C 904.988281 58.882812 903.585938 59.785156 902.785156 60.484375 C 900.988281 61.984375 890.285156 63.382812 868.285156 64.882812 C 831.488281 67.285156 821.285156 67.683594 820.085938 66.683594 C 819.488281 66.183594 818.785156 64.484375 818.585938 63.082031 L 818.285156 60.382812 L 816.1875 63.984375 C 814.488281 66.882812 813.488281 67.582031 810.6875 67.683594 C 805.285156 67.785156 765.785156 71.484375 733.386719 74.882812 C 716.886719 76.582031 702.085938 77.882812 700.386719 77.683594 C 697.488281 77.382812 697.285156 77.082031 696.785156 72.984375 C 696.085938 66.785156 693.988281 66.484375 693.585938 72.484375 C 693.285156 77.082031 693.085938 77.382812 689.785156 78.082031 C 681.488281 79.984375 612.585938 84.582031 583.285156 85.082031 L 568.285156 85.382812 L 567.6875 80.382812 L 567.1875 75.382812 L 565.886719 78.484375 C 565.285156 80.183594 563.285156 82.683594 561.488281 83.984375 C 557.886719 86.683594 555.6875 86.785156 477.285156 88.382812 C 435.585938 89.285156 437.386719 89.683594 438.988281 80.882812 C 440.1875 74.484375 439.285156 73.082031 437.886719 78.984375 C 435.886719 87.183594 435.285156 88.285156 432.785156 88.984375 C 431.386719 89.382812 417.285156 89.785156 401.285156 89.882812 C 385.386719 90.082031 365.585938 90.484375 357.285156 90.882812 C 349.085938 91.285156 362.085938 91.382812 386.386719 91.082031 C 410.585938 90.785156 431.585938 90.882812 433.085938 91.285156 C 436.488281 92.082031 436.585938 94.484375 433.785156 106.484375 C 431.386719 116.683594 431.585938 119.882812 434.085938 110.984375 C 436.988281 100.484375 438.1875 103.183594 437.488281 118.582031 C 433.386719 205.882812 433.886719 241.484375 441.285156 368.882812 C 445.285156 438.882812 445.785156 454.582031 443.988281 455.785156 C 443.085938 456.382812 442.886719 457.984375 443.386719 461.582031 C 443.6875 464.382812 443.585938 466.882812 443.1875 467.183594 C 440.285156 468.984375 351.886719 474.082031 349.988281 472.582031 C 349.085938 471.882812 348.886719 468.882812 349.386719 460.484375 C 349.886719 451.582031 351.6875 442.285156 358.285156 413.382812 C 362.886719 393.582031 370.988281 358.285156 376.1875 334.882812 C 381.488281 311.484375 388.285156 283.683594 391.285156 272.984375 C 394.386719 262.382812 396.6875 253.484375 396.488281 253.285156 C 395.488281 252.285156 383.085938 299.082031 374.886719 334.382812 C 369.886719 355.785156 362.1875 388.183594 357.785156 406.382812 C 353.285156 424.484375 348.988281 442.484375 348.085938 446.382812 C 346.488281 453.484375 344.785156 456.984375 344.785156 453.285156 C 344.785156 452.285156 344.386719 450.683594 343.785156 449.882812 C 343.285156 448.984375 342.886719 452.683594 342.988281 460.285156 C 342.988281 466.683594 342.585938 472.484375 342.085938 472.984375 C 340.988281 474.082031 236.785156 478.285156 235.6875 477.183594 C 235.1875 476.683594 235.785156 472.984375 236.785156 468.882812 C 237.886719 464.785156 239.6875 453.484375 240.785156 443.882812 C 244.386719 411.984375 248.785156 390.082031 264.886719 325.484375 C 270.285156 303.582031 276.386719 277.882812 278.386719 268.484375 C 280.285156 259.082031 287.886719 229.785156 295.285156 203.382812 C 316.488281 127.082031 316.988281 125.382812 315.285156 126.984375 C 313.585938 128.785156 281.6875 245.484375 277.285156 266.382812 C 273.1875 285.582031 270.785156 295.484375 258.886719 341.882812 C 245.6875 393.785156 241.285156 415.382812 237.285156 449.382812 C 234.488281 473.183594 228.785156 485.082031 225.886719 473.382812 C 224.585938 468.082031 223.285156 468.183594 222.386719 473.882812 C 221.886719 476.882812 221.285156 477.984375 219.488281 478.285156 C 218.285156 478.582031 199.285156 479.285156 177.285156 479.882812 C 132.988281 481.082031 105.1875 482.484375 96.785156 483.882812 C 90.386719 484.984375 109.988281 484.582031 172.285156 482.382812 C 194.886719 481.582031 214.785156 480.882812 216.488281 480.882812 C 219.285156 480.882812 219.988281 481.382812 221.1875 484.183594 C 222.386719 486.785156 222.6875 486.984375 222.6875 485.285156 C 222.785156 482.582031 225.285156 480.484375 227.285156 481.285156 C 228.285156 481.582031 228.785156 483.183594 228.785156 485.882812 C 228.785156 490.484375 230.285156 490.484375 231.285156 485.882812 C 232.488281 480.285156 232.585938 480.285156 281.785156 478.484375 C 327.585938 476.882812 337.886719 476.582031 340.988281 476.785156 C 341.988281 476.785156 342.988281 477.984375 343.386719 479.382812 C 344.1875 482.683594 345.386719 482.582031 347.285156 478.882812 C 348.1875 477.285156 349.585938 475.882812 350.585938 475.882812 C 355.085938 475.882812 421.988281 471.785156 431.488281 470.882812 L 442.285156 469.984375 L 444.386719 472.582031 L 446.585938 475.183594 L 448.285156 472.582031 C 449.1875 471.082031 450.6875 469.785156 451.585938 469.484375 C 456.585938 467.984375 506.886719 464.683594 561.886719 462.183594 L 575.585938 461.582031 L 576.886719 465.382812 L 578.285156 469.285156 L 578.785156 465.285156 L 579.285156 461.382812 L 587.785156 460.582031 C 592.488281 460.183594 619.488281 458.285156 647.785156 456.382812 C 684.6875 453.984375 699.585938 453.285156 700.488281 454.082031 C 701.386719 454.785156 701.785156 458.484375 701.785156 466.785156 C 701.785156 473.183594 702.285156 479.082031 702.785156 479.882812 C 703.488281 480.882812 703.785156 478.984375 703.886719 473.382812 C 703.988281 468.984375 704.285156 462.683594 704.6875 459.382812 C 705.285156 453.785156 705.488281 453.382812 708.285156 452.683594 C 709.988281 452.382812 722.585938 451.285156 736.285156 450.382812 C 750.085938 449.484375 772.988281 447.683594 787.285156 446.484375 C 801.585938 445.183594 814.886719 444.183594 816.785156 444.285156 C 820.1875 444.382812 820.386719 444.484375 823.6875 453.183594 C 825.585938 457.984375 827.386719 461.683594 827.585938 461.382812 C 827.886719 461.082031 827.085938 457.582031 825.785156 453.484375 C 824.585938 449.382812 823.785156 445.382812 824.085938 444.582031 C 824.785156 442.683594 825.988281 442.582031 872.285156 438.785156 C 911.386719 435.484375 920.1875 435.183594 927.585938 436.382812 C 938.285156 438.183594 942.488281 429.984375 934.6875 422.683594 C 932.988281 421.082031 931.785156 418.984375 931.785156 417.484375 C 931.785156 416.183594 931.285156 414.882812 930.6875 414.683594 C 927.085938 413.484375 912.6875 326.882812 908.285156 279.882812 C 903.6875 231.484375 902.386719 160.582031 905.285156 116.382812 C 906.085938 104.285156 906.785156 90.382812 906.785156 85.382812 C 906.785156 76.785156 906.886719 76.382812 909.785156 73.382812 C 914.085938 68.882812 914.6875 64.183594 911.285156 60.582031 C 908.585938 57.785156 908.285156 57.683594 905.785156 58.582031 Z M 902.285156 70.382812 C 904.085938 75.683594 904.1875 76.984375 903.1875 81.382812 C 902.488281 84.082031 901.1875 92.183594 900.285156 99.382812 C 898.285156 116.582031 897.085938 121.882812 887.285156 158.382812 C 873.488281 209.683594 843.488281 332.484375 834.6875 373.382812 C 830.386719 393.683594 828.386719 399.484375 822.6875 409.183594 C 819.386719 414.785156 818.386719 415.785156 817.1875 414.785156 C 815.988281 413.882812 815.785156 414.183594 815.785156 416.582031 C 815.785156 418.183594 815.085938 420.382812 814.285156 421.484375 C 813.488281 422.484375 812.785156 424.683594 812.785156 426.382812 C 812.585938 430.082031 810.488281 440.484375 809.6875 441.382812 C 808.785156 442.183594 774.285156 445.382812 737.488281 447.984375 C 702.988281 450.484375 703.886719 450.484375 703.785156 445.082031 C 703.785156 443.882812 705.886719 438.785156 708.386719 433.785156 C 714.585938 421.382812 722.085938 402.285156 725.6875 389.785156 C 728.785156 379.183594 730.6875 369.785156 737.6875 331.882812 C 740.285156 318.183594 744.285156 301.484375 748.785156 285.882812 C 752.6875 272.382812 759.488281 247.382812 763.886719 230.382812 C 773.386719 193.683594 776.285156 183.382812 782.785156 163.382812 C 785.488281 155.082031 791.1875 136.183594 795.585938 121.382812 C 803.285156 95.382812 805.386719 88.882812 806.085938 88.882812 C 806.1875 88.882812 806.386719 120.082031 806.285156 158.082031 C 806.285156 205.683594 806.6875 232.582031 807.585938 243.882812 C 811.988281 300.285156 813.785156 327.183594 814.886719 348.882812 C 815.488281 362.382812 816.1875 373.582031 816.386719 373.785156 C 817.6875 375.183594 815.488281 328.582031 812.285156 283.882812 C 810.886719 264.882812 809.285156 240.582031 808.785156 229.882812 C 807.386719 204.582031 807.488281 128.183594 808.886719 101.882812 C 809.488281 90.582031 810.085938 79.785156 810.1875 77.882812 C 810.386719 73.785156 811.488281 71.582031 812.886719 72.484375 C 813.488281 72.882812 813.585938 75.285156 813.1875 78.582031 C 812.386719 84.882812 814.085938 85.382812 815.1875 79.285156 C 816.488281 72.582031 817.6875 70.984375 822.1875 70.484375 C 824.488281 70.183594 835.988281 69.484375 847.785156 68.882812 C 867.785156 67.882812 894.6875 65.285156 895.785156 64.285156 C 895.988281 63.984375 897.085938 63.882812 898.1875 64.082031 C 899.6875 64.285156 900.785156 65.984375 902.285156 70.382812 Z M 807.1875 73.082031 C 807.988281 74.382812 807.1875 77.984375 803.585938 88.582031 C 800.988281 96.183594 797.285156 108.683594 795.285156 116.382812 C 793.285156 124.082031 788.6875 139.785156 785.085938 151.382812 C 781.386719 162.882812 776.988281 177.285156 775.085938 183.382812 C 773.1875 189.382812 767.785156 209.484375 763.1875 227.882812 C 758.488281 246.285156 751.886719 270.785156 748.585938 282.382812 C 740.585938 310.082031 739.6875 313.882812 733.6875 344.382812 C 727.988281 373.984375 724.988281 386.582031 720.585938 399.382812 C 717.285156 408.984375 705.585938 435.484375 703.785156 437.285156 C 703.085938 437.984375 701.886719 437.785156 699.988281 436.683594 L 697.285156 434.984375 L 696.1875 374.683594 C 694.085938 265.484375 692.585938 203.484375 691.785156 194.382812 C 691.085938 186.984375 690.988281 187.984375 691.386719 199.882812 C 692.1875 226.484375 693.785156 322.683594 694.386719 381.382812 C 694.988281 436.984375 695.085938 439.382812 696.886719 440.082031 C 697.886719 440.484375 698.988281 442.082031 699.386719 443.582031 C 699.6875 445.082031 700.085938 446.882812 700.285156 447.582031 C 700.488281 448.183594 700.085938 449.183594 699.488281 449.683594 C 698.785156 450.285156 674.1875 452.285156 644.785156 454.285156 C 577.085938 458.785156 578.886719 458.683594 577.785156 456.882812 C 575.988281 454.082031 576.6875 448.382812 579.285156 444.882812 C 584.085938 438.382812 588.886719 423.683594 593.785156 400.382812 C 596.488281 387.984375 599.488281 377.382812 611.285156 339.382812 C 616.386719 322.882812 622.886719 301.082031 625.785156 290.882812 C 632.988281 265.082031 665.386719 161.484375 672.6875 140.984375 C 674.988281 134.683594 676.585938 129.382812 676.386719 129.183594 C 675.1875 127.984375 635.785156 250.183594 624.386719 290.382812 C 621.886719 299.183594 614.6875 322.582031 608.386719 342.484375 C 602.085938 362.285156 594.386719 388.785156 591.285156 401.484375 C 585.6875 424.484375 583.488281 431.683594 579.785156 438.882812 C 577.886719 442.582031 575.585938 443.984375 574.386719 442.082031 C 573.085938 439.984375 569.285156 395.082031 566.785156 353.882812 C 566.1875 344.285156 564.886719 326.683594 563.785156 314.882812 C 559.785156 270.382812 559.285156 254.984375 559.386719 188.382812 C 559.488281 127.984375 560.488281 95.785156 562.386719 92.785156 C 562.886719 91.882812 563.386719 92.285156 564.085938 93.984375 L 564.988281 96.382812 L 565.988281 93.382812 C 566.585938 91.683594 567.488281 89.882812 567.988281 89.285156 C 568.488281 88.484375 574.386719 87.882812 583.585938 87.484375 C 591.6875 87.082031 615.1875 85.882812 635.785156 84.683594 C 656.386719 83.484375 676.6875 82.484375 680.785156 82.484375 L 688.285156 82.382812 L 688.585938 88.785156 C 688.785156 93.882812 688.285156 96.785156 685.886719 103.582031 C 682.285156 113.484375 682.085938 114.582031 684.785156 110.082031 C 685.886719 108.285156 687.285156 107.082031 687.785156 107.382812 C 688.386719 107.683594 688.785156 112.183594 688.886719 117.183594 C 688.886719 122.285156 689.285156 128.582031 689.785156 131.382812 C 690.285156 134.785156 690.585938 129.882812 690.6875 115.882812 C 690.886719 96.082031 690.988281 95.082031 693.585938 88.382812 L 696.285156 81.382812 L 701.285156 80.683594 C 704.085938 80.285156 720.488281 78.582031 737.785156 76.882812 C 805.988281 70.183594 805.386719 70.285156 807.1875 73.082031 Z M 558.785156 91.785156 C 558.785156 93.382812 558.085938 96.382812 557.1875 98.484375 C 556.285156 100.683594 553.785156 110.285156 551.6875 119.984375 C 549.1875 131.683594 544.988281 146.183594 539.285156 162.984375 C 530.6875 188.484375 519.886719 223.582031 506.886719 268.882812 C 503.085938 282.382812 497.585938 300.984375 494.785156 310.382812 C 491.988281 319.683594 487.285156 339.285156 484.285156 353.882812 C 477.6875 385.382812 472.988281 403.984375 468.386719 415.785156 C 463.585938 427.984375 448.585938 458.183594 447.785156 457.183594 C 447.386719 456.785156 446.585938 444.183594 445.886719 429.382812 C 445.285156 414.484375 443.386719 380.082031 441.785156 352.882812 C 437.285156 278.582031 436.488281 248.382812 437.085938 185.382812 C 437.785156 123.882812 439.285156 96.382812 442.1875 92.382812 C 443.1875 90.984375 447.6875 90.683594 477.285156 89.984375 C 495.988281 89.582031 521.988281 89.082031 535.085938 89.082031 L 558.785156 88.882812 Z M 903.386719 118.082031 C 901.085938 174.582031 900.886719 185.382812 901.785156 218.382812 C 903.6875 283.582031 909.988281 338.984375 922.785156 401.882812 L 926.6875 421.382812 L 924.1875 423.382812 C 922.785156 424.484375 921.285156 426.984375 920.886719 428.882812 L 920.1875 432.382812 L 906.285156 433.582031 C 898.585938 434.183594 878.1875 435.882812 860.988281 437.382812 C 843.886719 438.785156 827.886719 439.882812 825.585938 439.683594 C 821.386719 439.382812 821.386719 439.382812 819.585938 433.382812 C 818.585938 430.082031 817.988281 426.285156 818.386719 424.882812 C 818.6875 423.484375 821.785156 416.484375 825.386719 409.382812 C 831.886719 396.183594 832.785156 393.183594 839.085938 364.382812 C 849.585938 316.382812 876.488281 205.882812 888.488281 161.382812 C 894.285156 139.484375 902.785156 104.683594 902.785156 102.285156 C 902.785156 102.082031 903.085938 101.882812 903.488281 101.882812 C 903.785156 101.882812 903.785156 109.183594 903.386719 118.082031 Z M 557.6875 158.382812 C 556.285156 220.882812 557.988281 274.984375 562.785156 321.882812 C 563.285156 327.082031 564.1875 339.683594 564.785156 349.882812 C 567.1875 391.382812 567.886719 402.285156 569.785156 422.382812 C 572.285156 449.882812 572.6875 456.484375 571.886719 457.683594 C 570.988281 459.285156 565.6875 459.683594 514.785156 462.484375 C 489.1875 463.882812 464.988281 465.382812 460.886719 465.882812 C 453.285156 466.683594 450.785156 466.382812 450.785156 464.683594 C 450.785156 460.582031 455.085938 449.382812 461.285156 436.882812 C 473.1875 413.183594 477.085938 400.082031 486.785156 352.382812 C 489.886719 337.082031 494.886719 316.984375 500.785156 296.882812 C 523.488281 218.785156 529.585938 198.484375 538.785156 170.382812 C 544.1875 153.882812 549.988281 134.484375 551.6875 127.382812 C 555.785156 110.484375 556.785156 107.484375 557.886719 108.582031 C 558.488281 109.183594 558.386719 128.785156 557.6875 158.382812 Z M 557.6875 158.382812 "/>
<path style=" stroke:none;fill-rule:nonzero;fill:rgb(0%,0%,0%);fill-opacity:1;" d="M 322.386719 84.484375 C 322.785156 87.882812 322.6875 89.882812 321.886719 90.285156 C 321.285156 90.683594 317.285156 91.382812 312.988281 91.683594 L 305.285156 92.382812 L 323.285156 93.382812 L 323.585938 96.882812 C 323.988281 100.382812 326.1875 103.882812 328.085938 103.882812 C 328.988281 103.882812 328.785156 101.785156 327.285156 95.683594 C 326.585938 93.183594 326.886719 92.984375 330.886719 92.082031 L 335.285156 91.082031 L 331.085938 90.984375 C 326.585938 90.882812 323.785156 88.382812 323.785156 84.382812 C 323.785156 83.285156 323.285156 81.683594 322.785156 80.882812 C 322.1875 79.882812 321.988281 81.082031 322.386719 84.484375 Z M 322.386719 84.484375 "/>
<path style=" stroke:none;fill-rule:nonzero;fill:rgb(0%,0%,0%);fill-opacity:1;" d="M 30.386719 85.082031 C 27.585938 89.683594 27.488281 91.683594 30.1875 94.382812 C 31.785156 95.984375 33.785156 96.882812 35.785156 96.882812 C 37.488281 96.882812 38.785156 97.382812 38.785156 98.082031 C 38.785156 98.785156 39.6875 97.484375 40.886719 95.183594 C 44.386719 88.082031 43.386719 88.285156 67.585938 90.683594 C 98.585938 93.882812 114.488281 94.785156 156.085938 95.484375 C 176.285156 95.882812 193.085938 96.582031 193.386719 96.984375 C 193.6875 97.484375 193.386719 99.785156 192.785156 102.082031 C 190.386719 111.183594 190.488281 110.683594 192.1875 108.484375 C 193.085938 107.382812 194.085938 106.785156 194.386719 107.183594 C 195.1875 107.984375 198.785156 101.082031 198.785156 98.683594 C 198.785156 96.382812 200.1875 95.683594 206.6875 94.882812 L 212.285156 94.183594 L 205.488281 93.984375 C 199.1875 93.882812 198.6875 93.683594 197.488281 91.285156 L 196.285156 88.582031 L 195.785156 90.882812 C 195.386719 92.382812 194.1875 93.582031 192.285156 94.183594 C 188.1875 95.382812 126.1875 94.183594 99.285156 92.285156 C 65.585938 90.082031 47.1875 87.582031 44.386719 84.984375 C 41.085938 81.882812 32.386719 81.984375 30.386719 85.082031 Z M 30.386719 85.082031 "/>
<path style=" stroke:none;fill-rule:nonzero;fill:rgb(0%,0%,0%);fill-opacity:1;" d="M 283.085938 92.582031 C 284.585938 92.785156 286.785156 92.785156 288.085938 92.582031 C 289.285156 92.382812 288.085938 92.183594 285.285156 92.183594 C 282.585938 92.183594 281.488281 92.382812 283.085938 92.582031 Z M 283.085938 92.582031 "/>
<path style=" stroke:none;fill-rule:nonzero;fill:rgb(0%,0%,0%);fill-opacity:1;" d="M 244.085938 93.582031 C 244.988281 93.785156 246.585938 93.785156 247.585938 93.582031 C 248.488281 93.285156 247.6875 93.082031 245.785156 93.082031 C 243.886719 93.082031 243.085938 93.285156 244.085938 93.582031 Z M 244.085938 93.582031 "/>
<path style=" stroke:none;fill-rule:nonzero;fill:rgb(0%,0%,0%);fill-opacity:1;" d="M 269.585938 93.582031 C 270.785156 93.785156 272.585938 93.785156 273.585938 93.582031 C 274.488281 93.285156 273.488281 93.082031 271.285156 93.183594 C 269.085938 93.183594 268.285156 93.382812 269.585938 93.582031 Z M 269.585938 93.582031 "/>
<path style=" stroke:none;fill-rule:nonzero;fill:rgb(0%,0%,0%);fill-opacity:1;" d="M 229.585938 94.582031 C 230.785156 94.785156 232.785156 94.785156 234.085938 94.582031 C 235.285156 94.382812 234.285156 94.183594 231.785156 94.183594 C 229.285156 94.183594 228.285156 94.382812 229.585938 94.582031 Z M 229.585938 94.582031 "/>
<path style=" stroke:none;fill-rule:nonzero;fill:rgb(0%,0%,0%);fill-opacity:1;" d="M 39.285156 101.785156 C 38.585938 103.082031 38.988281 107.984375 42.785156 139.882812 C 44.6875 155.683594 46.085938 174.285156 46.785156 192.382812 C 47.386719 207.785156 48.585938 229.382812 49.285156 240.382812 C 56.085938 335.484375 57.785156 377.683594 57.785156 444.683594 C 57.785156 480.082031 57.886719 482.183594 59.785156 485.882812 C 60.886719 488.082031 62.386719 489.882812 63.085938 489.882812 C 65.6875 489.785156 68.785156 486.082031 68.785156 482.984375 C 68.785156 479.683594 67.886719 478.882812 63.585938 477.984375 L 60.785156 477.382812 L 60.386719 430.882812 C 59.886719 377.382812 58.085938 336.785156 53.886719 277.382812 C 52.1875 254.285156 49.886719 217.582031 48.785156 195.882812 C 47.6875 174.183594 46.285156 151.382812 45.6875 145.382812 C 44.488281 131.984375 40.6875 101.484375 40.285156 101.082031 C 40.085938 100.882812 39.6875 101.183594 39.285156 101.785156 Z M 39.285156 101.785156 "/>
<path style=" stroke:none;fill-rule:nonzero;fill:rgb(0%,0%,0%);fill-opacity:1;" d="M 315.785156 125.382812 C 315.785156 125.683594 315.988281 125.882812 316.285156 125.882812 C 316.585938 125.882812 316.785156 125.683594 316.785156 125.382812 C 316.785156 125.082031 316.585938 124.882812 316.285156 124.882812 C 315.988281 124.882812 315.785156 125.082031 315.785156 125.382812 Z M 315.785156 125.382812 "/>
<path style=" stroke:none;fill-rule:nonzero;fill:rgb(0%,0%,0%);fill-opacity:1;" d="M 425.785156 139.382812 C 425.785156 139.683594 425.988281 139.882812 426.285156 139.882812 C 426.585938 139.882812 426.785156 139.683594 426.785156 139.382812 C 426.785156 139.082031 426.585938 138.882812 426.285156 138.882812 C 425.988281 138.882812 425.785156 139.082031 425.785156 139.382812 Z M 425.785156 139.382812 "/>
<path style=" stroke:none;fill-rule:nonzero;fill:rgb(0%,0%,0%);fill-opacity:1;" d="M 179.785156 143.382812 C 179.785156 143.683594 179.988281 143.882812 180.285156 143.882812 C 180.585938 143.882812 180.785156 143.683594 180.785156 143.382812 C 180.785156 143.082031 180.585938 142.882812 180.285156 142.882812 C 179.988281 142.882812 179.785156 143.082031 179.785156 143.382812 Z M 179.785156 143.382812 "/>
<path style=" stroke:none;fill-rule:nonzero;fill:rgb(0%,0%,0%);fill-opacity:1;" d="M 424.785156 143.382812 C 424.785156 143.683594 424.988281 143.882812 425.285156 143.882812 C 425.585938 143.882812 425.785156 143.683594 425.785156 143.382812 C 425.785156 143.082031 425.585938 142.882812 425.285156 142.882812 C 424.988281 142.882812 424.785156 143.082031 424.785156 143.382812 Z M 424.785156 143.382812 "/>
<path style=" stroke:none;fill-rule:nonzero;fill:rgb(0%,0%,0%);fill-opacity:1;" d="M 178.785156 146.882812 C 178.785156 147.582031 179.085938 147.882812 179.488281 147.582031 C 179.785156 147.183594 179.785156 146.582031 179.488281 146.183594 C 179.085938 145.882812 178.785156 146.183594 178.785156 146.882812 Z M 178.785156 146.882812 "/>
<path style=" stroke:none;fill-rule:nonzero;fill:rgb(0%,0%,0%);fill-opacity:1;" d="M 423.886719 147.484375 C 423.886719 148.582031 424.1875 148.882812 424.488281 148.082031 C 424.785156 147.382812 424.6875 146.484375 424.386719 146.183594 C 424.085938 145.785156 423.785156 146.382812 423.886719 147.484375 Z M 423.886719 147.484375 "/>
<path style=" stroke:none;fill-rule:nonzero;fill:rgb(0%,0%,0%);fill-opacity:1;" d="M 177.785156 149.882812 C 177.785156 150.582031 178.085938 150.882812 178.488281 150.582031 C 178.785156 150.183594 178.785156 149.582031 178.488281 149.183594 C 178.085938 148.882812 177.785156 149.183594 177.785156 149.882812 Z M 177.785156 149.882812 "/>
<path style=" stroke:none;fill-rule:nonzero;fill:rgb(0%,0%,0%);fill-opacity:1;" d="M 422.886719 151.484375 C 422.886719 152.582031 423.1875 152.882812 423.488281 152.082031 C 423.785156 151.382812 423.6875 150.484375 423.386719 150.183594 C 423.085938 149.785156 422.785156 150.382812 422.886719 151.484375 Z M 422.886719 151.484375 "/>
<path style=" stroke:none;fill-rule:nonzero;fill:rgb(0%,0%,0%);fill-opacity:1;" d="M 176.886719 153.484375 C 176.886719 154.582031 177.1875 154.882812 177.488281 154.082031 C 177.785156 153.382812 177.6875 152.484375 177.386719 152.183594 C 177.085938 151.785156 176.785156 152.382812 176.886719 153.484375 Z M 176.886719 153.484375 "/>
<path style=" stroke:none;fill-rule:nonzero;fill:rgb(0%,0%,0%);fill-opacity:1;" d="M 421.886719 155.484375 C 421.886719 156.582031 422.1875 156.882812 422.488281 156.082031 C 422.785156 155.382812 422.6875 154.484375 422.386719 154.183594 C 422.085938 153.785156 421.785156 154.382812 421.886719 155.484375 Z M 421.886719 155.484375 "/>
<path style=" stroke:none;fill-rule:nonzero;fill:rgb(0%,0%,0%);fill-opacity:1;" d="M 175.785156 156.882812 C 175.785156 157.582031 176.085938 157.882812 176.488281 157.582031 C 176.785156 157.183594 176.785156 156.582031 176.488281 156.183594 C 176.085938 155.882812 175.785156 156.183594 175.785156 156.882812 Z M 175.785156 156.882812 "/>
<path style=" stroke:none;fill-rule:nonzero;fill:rgb(0%,0%,0%);fill-opacity:1;" d="M 420.886719 159.484375 C 420.886719 160.582031 421.1875 160.882812 421.488281 160.082031 C 421.785156 159.382812 421.6875 158.484375 421.386719 158.183594 C 421.085938 157.785156 420.785156 158.382812 420.886719 159.484375 Z M 420.886719 159.484375 "/>
<path style=" stroke:none;fill-rule:nonzero;fill:rgb(0%,0%,0%);fill-opacity:1;" d="M 174.785156 159.882812 C 174.785156 160.582031 175.085938 160.882812 175.488281 160.582031 C 175.785156 160.183594 175.785156 159.582031 175.488281 159.183594 C 175.085938 158.882812 174.785156 159.183594 174.785156 159.882812 Z M 174.785156 159.882812 "/>
<path style=" stroke:none;fill-rule:nonzero;fill:rgb(0%,0%,0%);fill-opacity:1;" d="M 168.886719 179.683594 C 165.886719 189.382812 158.6875 211.984375 152.6875 229.882812 C 146.785156 247.785156 140.085938 268.882812 137.785156 276.882812 C 135.488281 284.882812 128.785156 306.484375 122.785156 324.882812 C 107.085938 373.382812 101.785156 391.984375 96.785156 417.382812 C 95.585938 423.382812 92.988281 433.582031 91.085938 439.882812 C 86.785156 454.183594 76.285156 480.882812 73.6875 484.183594 C 72.6875 485.582031 72.085938 487.382812 72.386719 488.285156 C 72.886719 489.683594 73.285156 489.582031 75.6875 487.785156 C 77.085938 486.683594 78.285156 484.984375 78.386719 483.984375 C 78.488281 483.082031 80.785156 476.683594 83.488281 469.882812 C 90.1875 453.484375 93.988281 441.183594 97.285156 425.882812 C 98.785156 418.984375 101.085938 408.183594 102.488281 401.882812 C 106.085938 385.484375 113.1875 361.082031 124.6875 325.882812 C 130.085938 309.082031 136.488281 288.582031 138.6875 280.382812 C 140.988281 272.082031 146.886719 252.984375 151.785156 237.882812 C 162.1875 205.582031 175.085938 162.882812 174.585938 162.285156 C 174.386719 162.082031 171.785156 169.882812 168.886719 179.683594 Z M 168.886719 179.683594 "/>
<path style=" stroke:none;fill-rule:nonzero;fill:rgb(0%,0%,0%);fill-opacity:1;" d="M 419.886719 163.484375 C 419.886719 164.582031 420.1875 164.882812 420.488281 164.082031 C 420.785156 163.382812 420.6875 162.484375 420.386719 162.183594 C 420.085938 161.785156 419.785156 162.382812 419.886719 163.484375 Z M 419.886719 163.484375 "/>
<path style=" stroke:none;fill-rule:nonzero;fill:rgb(0%,0%,0%);fill-opacity:1;" d="M 418.886719 167.484375 C 418.886719 168.582031 419.1875 168.882812 419.488281 168.082031 C 419.785156 167.382812 419.6875 166.484375 419.386719 166.183594 C 419.085938 165.785156 418.785156 166.382812 418.886719 167.484375 Z M 418.886719 167.484375 "/>
<path style=" stroke:none;fill-rule:nonzero;fill:rgb(0%,0%,0%);fill-opacity:1;" d="M 417.886719 171.484375 C 417.886719 172.582031 418.1875 172.882812 418.488281 172.082031 C 418.785156 171.382812 418.6875 170.484375 418.386719 170.183594 C 418.085938 169.785156 417.785156 170.382812 417.886719 171.484375 Z M 417.886719 171.484375 "/>
<path style=" stroke:none;fill-rule:nonzero;fill:rgb(0%,0%,0%);fill-opacity:1;" d="M 416.886719 175.484375 C 416.886719 176.582031 417.1875 176.882812 417.488281 176.082031 C 417.785156 175.382812 417.6875 174.484375 417.386719 174.183594 C 417.085938 173.785156 416.785156 174.382812 416.886719 175.484375 Z M 416.886719 175.484375 "/>
<path style=" stroke:none;fill-rule:nonzero;fill:rgb(0%,0%,0%);fill-opacity:1;" d="M 415.886719 179.484375 C 415.886719 180.582031 416.1875 180.882812 416.488281 180.082031 C 416.785156 179.382812 416.6875 178.484375 416.386719 178.183594 C 416.085938 177.785156 415.785156 178.382812 415.886719 179.484375 Z M 415.886719 179.484375 "/>
<path style=" stroke:none;fill-rule:nonzero;fill:rgb(0%,0%,0%);fill-opacity:1;" d="M 414.886719 183.484375 C 414.886719 184.582031 415.1875 184.882812 415.488281 184.082031 C 415.785156 183.382812 415.6875 182.484375 415.386719 182.183594 C 415.085938 181.785156 414.785156 182.382812 414.886719 183.484375 Z M 414.886719 183.484375 "/>
<path style=" stroke:none;fill-rule:nonzero;fill:rgb(0%,0%,0%);fill-opacity:1;" d="M 412.886719 190.484375 C 412.1875 192.984375 411.886719 195.285156 412.085938 195.582031 C 412.386719 195.785156 413.085938 193.882812 413.6875 191.285156 C 414.386719 188.785156 414.6875 186.484375 414.488281 186.183594 C 414.1875 185.984375 413.488281 187.882812 412.886719 190.484375 Z M 412.886719 190.484375 "/>
<path style=" stroke:none;fill-rule:nonzero;fill:rgb(0%,0%,0%);fill-opacity:1;" d="M 410.886719 198.484375 C 410.886719 199.582031 411.1875 199.882812 411.488281 199.082031 C 411.785156 198.382812 411.6875 197.484375 411.386719 197.183594 C 411.085938 196.785156 410.785156 197.382812 410.886719 198.484375 Z M 410.886719 198.484375 "/>
<path style=" stroke:none;fill-rule:nonzero;fill:rgb(0%,0%,0%);fill-opacity:1;" d="M 409.285156 203.882812 C 408.886719 205.582031 408.785156 207.285156 409.085938 207.484375 C 409.285156 207.785156 409.785156 206.484375 410.1875 204.785156 C 410.988281 200.582031 410.1875 199.785156 409.285156 203.882812 Z M 409.285156 203.882812 "/>
<path style=" stroke:none;fill-rule:nonzero;fill:rgb(0%,0%,0%);fill-opacity:1;" d="M 406.886719 213.484375 C 406.1875 215.984375 405.886719 218.285156 406.085938 218.582031 C 406.386719 218.785156 407.085938 216.882812 407.6875 214.285156 C 408.386719 211.785156 408.6875 209.484375 408.488281 209.183594 C 408.1875 208.984375 407.488281 210.882812 406.886719 213.484375 Z M 406.886719 213.484375 "/>
<path style=" stroke:none;fill-rule:nonzero;fill:rgb(0%,0%,0%);fill-opacity:1;" d="M 400.886719 235.484375 C 398.585938 244.082031 396.886719 251.285156 397.085938 251.484375 C 397.285156 251.683594 399.386719 244.882812 401.6875 236.285156 C 404.085938 227.683594 405.785156 220.484375 405.585938 220.285156 C 405.285156 220.082031 403.1875 226.882812 400.886719 235.484375 Z M 400.886719 235.484375 "/>
<path style=" stroke:none;fill-rule:nonzero;fill:rgb(0%,0%,0%);fill-opacity:1;" d="M 578.785156 471.382812 C 578.785156 471.683594 578.988281 471.882812 579.285156 471.882812 C 579.585938 471.882812 579.785156 471.683594 579.785156 471.382812 C 579.785156 471.082031 579.585938 470.882812 579.285156 470.882812 C 578.988281 470.882812 578.785156 471.082031 578.785156 471.382812 Z M 578.785156 471.382812 "/>
<path style=" stroke:none;fill-rule:nonzero;fill:rgb(0%,0%,0%);fill-opacity:1;" d="M 940.785156 486.785156 C 932.1875 490.285156 926.488281 498.484375 926.386719 507.582031 C 926.1875 520.984375 939.285156 523.984375 950.886719 513.183594 C 956.886719 507.582031 959.1875 501.882812 958.585938 494.683594 C 957.6875 485.484375 951.1875 482.582031 940.785156 486.785156 Z M 953.1875 491.082031 C 959.285156 499.683594 948.285156 515.882812 936.386719 515.882812 C 928.785156 515.882812 926.785156 508.382812 931.488281 496.785156 C 932.6875 493.582031 933.886719 492.582031 938.085938 490.984375 C 945.386719 488.183594 951.1875 488.285156 953.1875 491.082031 Z M 953.1875 491.082031 "/>
<path style=" stroke:none;fill-rule:nonzero;fill:rgb(0%,0%,0%);fill-opacity:1;" d="M 837.1875 491.785156 C 832.988281 494.382812 821.1875 507.484375 817.6875 513.382812 C 813.988281 519.785156 813.886719 524.683594 817.386719 528.785156 C 821.386719 533.582031 828.6875 532.582031 831.785156 526.785156 C 834.1875 522.382812 829.585938 518.882812 821.585938 518.882812 C 819.988281 518.882812 818.785156 518.382812 818.785156 517.582031 C 818.785156 514.984375 824.785156 506.882812 832.6875 498.882812 C 837.1875 494.382812 840.6875 490.484375 840.488281 490.285156 C 840.386719 490.082031 838.886719 490.785156 837.1875 491.785156 Z M 827.585938 525.082031 C 827.785156 526.183594 826.988281 527.285156 825.285156 528.082031 C 823.085938 529.082031 822.386719 528.984375 820.488281 526.984375 C 818.585938 525.082031 818.488281 524.683594 819.785156 523.882812 C 822.1875 522.285156 827.1875 523.082031 827.585938 525.082031 Z M 827.585938 525.082031 "/>
<path style=" stroke:none;fill-rule:nonzero;fill:rgb(0%,0%,0%);fill-opacity:1;" d="M 450.585938 502.484375 C 448.988281 503.285156 447.785156 504.582031 447.785156 505.382812 C 447.785156 506.582031 448.386719 506.582031 451.988281 505.285156 C 458.785156 502.882812 460.386719 504.183594 460.988281 512.882812 C 461.285156 516.183594 461.488281 516.382812 467.085938 517.484375 C 473.1875 518.683594 476.785156 521.082031 476.785156 523.984375 C 476.785156 528.082031 460.886719 537.582031 456.1875 536.484375 C 453.488281 535.785156 451.785156 536.984375 451.785156 539.582031 C 451.785156 541.484375 457.6875 541.082031 462.285156 538.984375 C 469.488281 535.582031 479.285156 527.582031 479.585938 524.785156 C 480.085938 520.882812 476.1875 517.082031 469.785156 514.984375 L 464.285156 513.183594 L 463.785156 508.285156 C 463.386719 504.382812 462.785156 503.183594 460.785156 502.183594 C 457.488281 500.484375 453.886719 500.582031 450.585938 502.484375 Z M 450.585938 502.484375 "/>
<path style=" stroke:none;fill-rule:nonzero;fill:rgb(0%,0%,0%);fill-opacity:1;" d="M 701.386719 510.382812 C 698.6875 512.484375 697.988281 516.183594 699.6875 518.785156 C 700.1875 519.582031 702.585938 521.183594 704.988281 522.285156 C 708.386719 523.984375 709.386719 524.984375 709.585938 527.285156 C 710.085938 531.382812 707.988281 534.683594 704.085938 535.984375 C 700.1875 537.285156 699.6875 538.882812 703.386719 538.882812 C 706.988281 538.882812 709.488281 537.285156 711.285156 533.882812 C 714.386719 527.882812 712.085938 522.484375 705.6875 520.382812 C 702.085938 519.183594 700.886719 516.683594 702.6875 514.484375 C 703.386719 513.683594 707.1875 512.984375 712.285156 512.582031 C 716.886719 512.285156 721.785156 511.382812 722.988281 510.683594 L 725.285156 509.382812 L 722.785156 509.183594 C 721.386719 509.082031 716.585938 508.785156 712.085938 508.683594 C 705.085938 508.382812 703.585938 508.683594 701.386719 510.382812 Z M 701.386719 510.382812 "/>
<path style=" stroke:none;fill-rule:nonzero;fill:rgb(0%,0%,0%);fill-opacity:1;" d="M 582.285156 515.683594 C 581.988281 517.285156 580.785156 519.484375 579.785156 520.382812 C 576.988281 522.984375 575.386719 528.285156 576.785156 530.785156 C 577.988281 533.082031 581.785156 534.382812 584.886719 533.582031 C 588.886719 532.484375 589.785156 533.785156 589.785156 539.882812 C 589.785156 543.582031 590.285156 546.082031 591.1875 546.785156 C 592.785156 548.183594 593.386719 545.285156 594.386719 530.484375 C 594.988281 522.285156 594.886719 520.683594 593.6875 521.082031 C 592.886719 521.382812 591.785156 523.285156 591.285156 525.285156 C 590.6875 527.382812 589.386719 529.484375 588.386719 530.082031 C 586.1875 531.285156 579.886719 530.183594 579.1875 528.484375 C 578.886719 527.683594 580.085938 524.382812 581.886719 520.984375 C 584.1875 516.582031 584.785156 514.484375 584.085938 513.785156 C 583.285156 512.984375 582.785156 513.582031 582.285156 515.683594 Z M 582.285156 515.683594 "/>
<path style=" stroke:none;fill-rule:nonzero;fill:rgb(0%,0%,0%);fill-opacity:1;" d="M 347.6875 517.882812 L 345.285156 519.785156 L 351.886719 519.882812 C 362.785156 519.882812 363.285156 522.984375 354.285156 534.183594 C 344.285156 546.582031 345.488281 549.382812 360.585938 549.382812 C 367.988281 549.382812 371.285156 548.882812 374.585938 547.484375 C 378.585938 545.683594 379.386719 544.882812 378.285156 543.683594 C 377.988281 543.382812 374.6875 543.785156 370.988281 544.484375 C 362.785156 546.082031 357.285156 546.183594 354.6875 544.882812 C 352.386719 543.582031 352.886719 542.382812 359.285156 533.984375 C 363.785156 527.984375 365.085938 524.683594 364.085938 521.082031 C 362.886719 516.183594 352.1875 514.082031 347.6875 517.882812 Z M 347.6875 517.882812 "/>
<path style=" stroke:none;fill-rule:nonzero;fill:rgb(0%,0%,0%);fill-opacity:1;" d="M 222.285156 522.785156 C 221.988281 523.382812 221.886719 525.285156 222.285156 526.882812 C 222.6875 528.582031 222.386719 534.882812 221.6875 540.984375 C 220.6875 550.683594 220.785156 554.183594 222.1875 552.785156 C 223.285156 551.683594 225.988281 531.082031 225.488281 527.582031 C 224.886719 523.183594 223.386719 521.082031 222.285156 522.785156 Z M 222.285156 522.785156 "/>
<path style=" stroke:none;fill-rule:nonzero;fill:rgb(0%,0%,0%);fill-opacity:1;" d="M 54.785156 532.285156 C 48.085938 535.183594 46.488281 537.683594 47.1875 544.285156 C 47.886719 550.183594 49.6875 553.183594 53.785156 554.882812 C 58.386719 556.785156 63.988281 554.683594 68.886719 549.082031 C 75.386719 541.582031 75.1875 534.183594 68.285156 531.285156 C 63.585938 529.382812 61.285156 529.582031 54.785156 532.285156 Z M 69.386719 536.382812 C 71.386719 539.484375 69.988281 544.382812 65.988281 548.082031 C 58.585938 555.082031 50.6875 554.183594 49.1875 546.382812 C 47.988281 539.785156 54.488281 533.882812 62.988281 533.882812 C 66.886719 533.882812 67.988281 534.285156 69.386719 536.382812 Z M 69.386719 536.382812 "/>
<path style=" stroke:none;fill-rule:nonzero;fill:rgb(0%,0%,0%);fill-opacity:1;" d="M 681.785156 114.382812 C 681.785156 114.683594 681.988281 114.882812 682.285156 114.882812 C 682.585938 114.882812 682.785156 114.683594 682.785156 114.382812 C 682.785156 114.082031 682.585938 113.882812 682.285156 113.882812 C 681.988281 113.882812 681.785156 114.082031 681.785156 114.382812 Z M 681.785156 114.382812 "/>
<path style=" stroke:none;fill-rule:nonzero;fill:rgb(0%,0%,0%);fill-opacity:1;" d="M 680.785156 116.382812 C 680.785156 116.683594 680.988281 116.882812 681.285156 116.882812 C 681.585938 116.882812 681.785156 116.683594 681.785156 116.382812 C 681.785156 116.082031 681.585938 115.882812 681.285156 115.882812 C 680.988281 115.882812 680.785156 116.082031 680.785156 116.382812 Z M 680.785156 116.382812 "/>
<path style=" stroke:none;fill-rule:nonzero;fill:rgb(0%,0%,0%);fill-opacity:1;" d="M 679.785156 118.882812 C 679.785156 119.582031 680.085938 119.882812 680.488281 119.582031 C 680.785156 119.183594 680.785156 118.582031 680.488281 118.183594 C 680.085938 117.882812 679.785156 118.183594 679.785156 118.882812 Z M 679.785156 118.882812 "/>
<path style=" stroke:none;fill-rule:nonzero;fill:rgb(0%,0%,0%);fill-opacity:1;" d="M 678.785156 121.882812 C 678.785156 122.582031 679.085938 122.882812 679.488281 122.582031 C 679.785156 122.183594 679.785156 121.582031 679.488281 121.183594 C 679.085938 120.882812 678.785156 121.183594 678.785156 121.882812 Z M 678.785156 121.882812 "/>
<path style=" stroke:none;fill-rule:nonzero;fill:rgb(0%,0%,0%);fill-opacity:1;" d="M 677.386719 125.382812 C 676.488281 127.984375 676.6875 128.582031 677.886719 126.582031 C 678.488281 125.582031 678.785156 124.484375 678.488281 124.285156 C 678.285156 123.984375 677.785156 124.484375 677.386719 125.382812 Z M 677.386719 125.382812 "/>
<path style=" stroke:none;fill-rule:nonzero;fill:rgb(0%,0%,0%);fill-opacity:1;" d="M 691.085938 171.882812 C 691.085938 174.382812 691.285156 175.382812 691.488281 174.082031 C 691.6875 172.882812 691.6875 170.882812 691.488281 169.582031 C 691.285156 168.382812 691.085938 169.382812 691.085938 171.882812 Z M 691.085938 171.882812 "/>
</g>
</svg>
