<?xml version="1.0" standalone="no"?>
<!DOCTYPE svg PUBLIC "-//W3C//DTD SVG 20010904//EN"
 "http://www.w3.org/TR/2001/REC-SVG-20010904/DTD/svg10.dtd">
<svg version="1.0" xmlns="http://www.w3.org/2000/svg"
 width="958.873328pt" height="556.899005pt" viewBox="0 0 958.873328 556.899005"
 preserveAspectRatio="xMidYMid meet">
<metadata>
Created by potrace 1.11, written by Peter Selinger 2001-2013
</metadata>
<g transform="translate(-62.126672,604.000000) scale(0.100000,-0.100000)"
fill="#000000" stroke="none">
<path d="M8766 5943 c-80 -103 -102 -141 -112 -192 -10 -47 19 -40 42 10 10
23 51 89 91 147 70 101 84 132 64 132 -6 0 -44 -44 -85 -97z"/>
<path d="M9661 6021 c-24 -15 -5 -41 31 -41 25 0 29 3 18 10 -11 7 3 10 48 10
79 0 81 -13 10 -72 -96 -80 -128 -115 -128 -141 0 -23 5 -25 75 -36 42 -6 88
-11 104 -11 41 0 123 30 118 44 -3 6 -11 9 -18 7 -25 -7 -229 -4 -237 4 -4 4
13 24 38 44 76 61 140 127 140 144 0 35 -29 47 -108 47 -42 0 -83 -4 -91 -9z"/>
<path d="M6495 5936 c-86 -58 -209 -180 -230 -228 -11 -23 -28 -49 -37 -56
-24 -17 -23 -42 0 -35 12 3 25 -4 36 -21 22 -34 68 -35 101 -1 43 42 27 75
-37 75 -22 0 -38 5 -38 11 0 25 43 77 121 149 98 89 134 113 160 105 14 -5 19
-1 19 14 0 32 -37 27 -95 -13z m-160 -321 c-21 -17 -37 -15 -43 3 -2 8 8 12
30 12 31 -1 32 -1 13 -15z"/>
<path d="M3931 5838 c-15 -35 -47 -87 -70 -116 -104 -131 -114 -162 -53 -162
20 0 57 5 81 11 24 5 45 8 47 6 2 -1 -8 -38 -21 -80 -29 -89 -30 -107 -11
-107 14 0 60 94 81 165 16 51 4 90 -22 76 -24 -12 -144 -43 -150 -38 -2 3 22
38 53 78 81 107 128 209 104 224 -6 4 -23 -22 -39 -57z"/>
<path d="M5244 5891 c-124 -6 -158 -17 -152 -50 1 -9 -11 -36 -28 -61 -36 -52
-47 -80 -36 -96 4 -6 34 -16 67 -22 32 -7 64 -17 69 -22 6 -6 -9 -27 -41 -60
-44 -44 -78 -64 -71 -42 5 14 -17 13 -26 -1 -12 -19 9 -47 36 -47 25 0 127 96
134 127 9 35 -19 60 -82 73 -30 6 -54 16 -54 21 0 11 47 81 78 117 17 20 29
22 113 22 62 1 100 5 112 14 17 13 24 38 10 34 -5 -1 -63 -4 -129 -7z"/>
<path d="M7480 5873 c-24 -9 -60 -45 -60 -61 0 -8 6 -12 14 -9 7 3 -2 -20 -21
-51 -20 -34 -33 -67 -31 -82 3 -23 7 -25 53 -25 59 1 133 34 182 83 26 25 33
41 33 70 0 46 -8 58 -43 71 -29 11 -101 13 -127 4z m130 -53 c5 -8 3 -27 -4
-44 -15 -36 -105 -94 -160 -103 -31 -5 -36 -3 -36 13 0 24 54 134 72 146 19
13 118 4 128 -12z"/>
<path d="M690 5797 c-37 -8 -55 -17 -55 -27 0 -16 2 -16 95 -5 71 8 102 -10
81 -46 -7 -13 -46 -51 -86 -84 -77 -63 -119 -120 -98 -133 6 -4 87 -5 179 -2
150 4 169 7 172 23 3 16 -9 17 -150 17 l-153 1 40 32 c79 64 136 121 141 143
9 34 -4 63 -36 79 -33 17 -54 17 -130 2z"/>
<path d="M2463 5780 c-41 -17 -24 -58 18 -45 17 6 19 9 8 17 -10 7 -2 8 25 4
82 -11 82 -59 1 -95 -67 -30 -60 -51 18 -52 118 -2 143 -22 75 -62 -67 -39
-153 -60 -220 -54 -45 4 -58 2 -58 -9 0 -40 122 -49 208 -15 138 55 190 121
122 156 -16 8 -36 15 -44 15 -20 0 -31 19 -17 33 18 18 13 72 -9 92 -22 20
-95 29 -127 15z"/>
<path d="M9715 5450 c-4 -6 -11 -7 -17 -4 -5 4 -22 -2 -36 -13 -33 -24 -140
-37 -477 -58 -132 -8 -270 -17 -308 -19 l-68 -5 7 51 c8 62 -6 59 -32 -7 -17
-46 -27 -52 -54 -35 -9 5 -19 5 -27 -1 -7 -6 -95 -17 -195 -25 -101 -8 -337
-30 -526 -49 -188 -19 -353 -35 -367 -35 -22 0 -24 4 -27 57 -4 81 -26 82 -30
2 -3 -69 -21 -88 -33 -37 l-9 33 -3 -32 c-3 -23 -10 -33 -21 -33 -9 0 -66 -4
-127 -10 -129 -11 -561 -37 -755 -45 -74 -3 -174 -8 -222 -11 l-88 -6 0 34 c0
18 4 48 9 66 15 52 -11 34 -28 -19 -8 -24 -18 -53 -22 -64 -8 -18 -8 -17 -3 3
3 13 1 22 -6 22 -7 0 -14 -9 -17 -19 -4 -17 -18 -20 -126 -25 -124 -6 -1045
-26 -1083 -23 -19 1 -20 5 -13 48 4 25 14 69 23 97 8 29 11 52 7 52 -13 0 -40
-68 -52 -133 l-12 -64 -336 -7 c-185 -3 -433 -7 -551 -8 l-215 -3 -11 68 c-11
65 -19 86 -29 76 -2 -3 0 -36 6 -73 5 -38 8 -70 7 -71 -2 -2 -208 -8 -458 -14
-250 -6 -530 -14 -622 -17 l-168 -7 0 24 c0 13 -9 51 -20 84 l-20 60 6 -54 c3
-30 8 -67 11 -84 l6 -30 -414 6 c-228 4 -477 11 -554 16 -206 15 -545 54 -545
62 0 4 -7 14 -15 22 -18 19 -103 11 -127 -12 -52 -49 -19 -129 48 -118 l34 6
0 -64 c0 -36 13 -174 30 -307 30 -247 32 -280 50 -683 6 -126 24 -417 40 -645
52 -740 72 -1277 69 -1849 -1 -254 1 -315 12 -322 7 -4 10 -11 7 -15 -4 -4 2
-20 13 -36 l21 -29 22 20 c12 12 34 21 48 21 21 0 25 -4 21 -20 -7 -27 23 -27
32 -1 4 15 18 21 58 25 62 7 685 33 977 41 113 3 253 8 313 11 l107 6 0 -39
c0 -38 22 -83 41 -83 5 0 2 11 -6 24 -9 14 -15 39 -13 58 3 29 7 33 35 36 l31
3 -9 -38 c-12 -53 -11 -75 3 -71 7 3 18 26 24 52 7 26 15 50 19 54 8 8 1083
47 1091 39 3 -3 10 -21 14 -39 l8 -33 17 43 c17 38 21 42 54 42 65 0 602 31
761 44 85 7 158 11 163 9 4 -2 7 -14 7 -27 0 -12 3 -26 7 -29 8 -9 32 24 33
45 0 10 11 19 28 22 60 12 275 28 632 46 206 11 427 23 492 27 l116 6 11 -39
c7 -21 17 -74 23 -116 7 -43 16 -78 21 -78 12 0 1 107 -18 180 -8 30 -13 55
-12 55 7 5 1223 81 1230 78 4 -2 7 -74 7 -159 0 -85 4 -154 8 -154 9 0 22 163
22 266 l0 52 83 6 c343 26 754 59 867 69 74 7 151 13 170 13 l35 -1 35 -99
c20 -55 41 -101 48 -104 17 -5 16 -4 -23 110 -20 55 -34 102 -33 103 2 2 228
21 502 44 345 29 502 39 510 31 11 -11 68 -13 104 -4 26 7 62 66 43 72 -6 2
-11 12 -11 23 0 10 -11 26 -25 35 -30 19 -42 58 -26 78 10 12 8 13 -8 9 -15
-4 -21 1 -26 18 -82 354 -170 911 -210 1339 -42 437 -57 1102 -35 1460 5 80
12 241 16 358 7 205 8 214 29 228 45 29 62 112 25 121 -23 6 -24 8 -10 34 11
20 -3 28 -15 9z m-77 -90 c0 -17 7 -44 15 -60 13 -25 13 -37 2 -82 -8 -29 -23
-119 -34 -200 -23 -165 -40 -240 -106 -483 -147 -540 -474 -1880 -569 -2330
-21 -98 -37 -143 -87 -242 -33 -68 -62 -123 -62 -123 -1 0 -3 154 -4 343 -3
396 -11 569 -53 1132 -39 519 -50 1106 -30 1595 7 179 13 333 12 343 -1 27 16
67 29 67 8 0 10 -18 5 -62 -4 -34 -8 -66 -9 -69 -1 -4 3 -8 8 -10 6 -1 17 28
25 64 8 36 18 68 21 72 4 3 87 10 185 15 248 14 444 30 539 45 117 18 112 19
113 -15z m92 2 c0 -5 -7 -17 -15 -28 -14 -18 -14 -17 -4 9 12 27 19 34 19 19z
m-1032 -70 c2 -13 -14 -71 -36 -130 -22 -59 -67 -206 -101 -327 -33 -121 -92
-319 -131 -440 -70 -217 -124 -411 -215 -775 -25 -102 -75 -284 -110 -405 -85
-295 -97 -344 -145 -600 -82 -446 -123 -583 -248 -847 l-65 -137 -28 30 -29
31 0 257 c0 321 -24 1553 -46 2306 -18 658 -17 824 8 875 9 19 19 47 22 61 5
25 10 27 83 33 43 4 211 20 373 37 365 36 607 57 640 55 18 -1 26 -8 28 -24z
m-1161 -119 c-3 -10 -5 -2 -5 17 0 19 2 27 5 18 2 -10 2 -26 0 -35z m-27 -26
c0 -75 -1 -79 -84 -282 -90 -220 -439 -1288 -536 -1641 -46 -165 -70 -245
-205 -674 -97 -308 -108 -347 -175 -623 -22 -93 -54 -201 -70 -242 -32 -76
-66 -120 -74 -94 -9 30 -47 478 -61 724 -9 143 -22 339 -30 435 -56 648 -67
1005 -55 1721 9 495 14 621 27 655 10 26 18 14 18 -28 0 -60 23 -61 27 -1 l3
48 170 7 c231 9 751 38 855 48 47 4 109 8 138 9 l52 1 0 -63z m1186 -4 c-4
-27 -11 -232 -16 -458 -14 -587 -2 -892 70 -1835 5 -69 15 -327 21 -573 l12
-448 -22 -22 c-21 -24 -29 -53 -11 -42 14 9 13 -3 -10 -65 -20 -54 -20 -87 0
-75 5 3 14 20 19 38 l9 32 1 -37 c1 -31 -3 -38 -21 -42 -51 -11 -975 -86
-1060 -86 -25 0 -28 3 -28 36 0 22 13 59 34 97 73 131 161 358 207 534 15 62
47 213 69 335 55 306 71 375 155 668 41 140 92 329 115 420 80 318 140 538
201 726 33 104 101 329 151 499 49 171 92 318 95 328 10 33 15 17 9 -30z
m-7709 -25 c-3 -7 -5 -2 -5 12 0 14 2 19 5 13 2 -7 2 -19 0 -25z m40 15 c-4
-3 -7 0 -7 7 0 7 3 10 7 7 3 -4 3 -10 0 -14z m226 -13 c279 -32 639 -50 989
-50 l327 0 -55 -162 c-30 -90 -107 -334 -170 -543 -63 -209 -155 -501 -204
-648 -49 -147 -110 -339 -134 -425 -25 -86 -83 -276 -131 -422 -173 -531 -246
-788 -285 -999 -12 -63 -37 -167 -55 -232 -34 -116 -155 -430 -177 -456 -6 -7
-21 -13 -34 -13 -21 0 -23 4 -18 25 4 15 1 32 -6 40 -14 17 -51 20 -66 5 -6
-6 -8 99 -5 283 5 465 -18 1065 -69 1782 -16 231 -39 596 -50 810 -19 376 -30
503 -68 815 -17 144 -17 145 3 177 11 18 23 32 28 33 4 0 85 -9 180 -20z
m4960 -2 c-3 -13 -16 -57 -29 -98 -13 -41 -38 -138 -54 -215 -17 -77 -75 -275
-130 -440 -103 -311 -164 -513 -295 -965 -42 -146 -103 -355 -136 -466 -32
-110 -81 -311 -108 -445 -89 -443 -132 -584 -247 -811 -37 -73 -79 -170 -94
-216 l-27 -83 -6 263 c-3 145 -22 529 -41 853 -46 764 -60 1213 -53 1705 6
376 29 868 43 904 5 14 28 16 173 17 91 1 285 5 431 8 146 4 335 8 422 9 l156
2 -5 -22z m3443 -255 c-63 -966 -2 -1885 188 -2827 26 -132 49 -222 57 -227
10 -6 6 -9 -13 -9 -36 0 -58 -25 -58 -66 l0 -34 -57 0 c-32 0 -161 -9 -288
-20 -578 -52 -640 -56 -646 -47 -4 5 -15 39 -24 74 l-18 65 72 144 c74 147 80
167 144 459 110 502 369 1560 512 2095 68 254 115 467 132 608 14 117 14 15
-1 -215z m-4676 224 c0 -17 -5 -48 -11 -67 -5 -19 -21 -82 -34 -140 -60 -267
-274 -1082 -397 -1510 -38 -135 -115 -438 -169 -675 -55 -236 -138 -588 -185
-782 -47 -194 -89 -391 -94 -439 -5 -47 -11 -89 -15 -92 -3 -3 -5 31 -5 74 0
44 -11 156 -24 250 -14 93 -30 257 -36 364 -15 260 -25 385 -54 700 -40 421
-49 759 -42 1580 6 624 4 730 -7 705 l-14 -30 -5 35 c-3 19 -4 37 -1 40 2 2
223 7 491 10 268 4 513 7 545 8 l57 2 0 -33z m27 11 c-3 -8 -6 -5 -6 6 -1 11
2 17 5 13 3 -3 4 -12 1 -19z m-1147 -21 c0 -13 -23 -95 -50 -182 -105 -330
-380 -1332 -419 -1526 -36 -175 -62 -281 -156 -649 -145 -559 -199 -823 -235
-1137 -12 -106 -29 -202 -45 -252 -26 -81 -26 -81 -60 -81 -26 0 -35 4 -35 16
0 14 2 15 17 3 15 -13 16 -11 10 12 -11 44 -147 1019 -167 1202 -30 270 -40
466 -40 817 0 366 -15 673 -61 1220 -36 436 -37 472 -21 478 7 2 12 19 12 38
l0 34 83 1 c45 0 278 7 517 13 680 20 650 20 650 -7z m-1287 -99 c-2 -29 9
-228 27 -443 46 -587 60 -856 60 -1230 0 -516 14 -675 129 -1490 79 -566 79
-561 -3 -569 -28 -3 -168 -8 -311 -11 -374 -8 -715 -23 -904 -41 -89 -8 -165
-13 -168 -10 -3 3 10 41 29 83 85 186 145 382 188 608 44 228 108 454 268 945
50 151 109 343 132 425 23 83 79 265 125 405 47 140 136 426 199 635 111 371
228 745 232 745 2 0 0 -24 -3 -52z m1315 12 c4 -8 7 -393 7 -855 0 -881 3
-964 50 -1455 13 -141 29 -341 35 -445 17 -292 28 -423 49 -562 19 -121 25
-210 22 -329 l-1 -51 -182 -7 c-101 -4 -343 -14 -538 -21 -195 -8 -356 -13
-358 -10 -2 2 6 36 17 77 12 40 30 152 41 248 38 332 75 510 234 1150 63 250
128 525 146 610 27 133 442 1657 458 1685 3 5 7 2 10 -5 2 -8 7 -22 10 -30z
m1102 -183 c-17 -226 -24 -1104 -11 -1467 6 -173 29 -621 51 -995 22 -374 40
-726 40 -783 l0 -102 -25 16 c-28 18 -33 9 -9 -17 9 -10 19 -38 21 -62 l5 -43
-173 -14 c-289 -21 -774 -46 -777 -39 -2 4 2 65 7 136 8 104 28 203 105 528
52 220 131 562 176 760 44 198 108 452 140 565 116 404 333 1233 425 1620 34
145 41 114 25 -103z m1209 -133 c-13 -353 -7 -1158 11 -1414 5 -85 19 -258 30
-385 11 -126 29 -381 40 -565 11 -184 29 -423 39 -530 11 -107 22 -227 26
-266 l6 -71 -88 -7 c-48 -4 -290 -18 -538 -31 -247 -14 -481 -29 -520 -34 -38
-6 -72 -8 -74 -5 -13 13 30 135 96 267 128 257 164 376 257 832 38 190 83 368
151 600 53 182 139 476 191 655 52 179 140 460 194 625 55 165 117 379 140
475 22 96 40 177 40 179 0 2 3 2 6 -1 3 -3 0 -149 -7 -324z m1326 -474 c26
-1027 48 -2308 42 -2452 -3 -76 -3 -138 0 -138 3 0 12 8 19 18 11 16 13 15 23
-11 6 -16 12 -43 14 -60 l2 -32 -325 -22 c-179 -12 -455 -30 -613 -40 l-288
-19 -5 26 c-3 14 -7 34 -9 45 -3 12 7 35 25 56 55 69 84 156 154 454 24 105
67 262 94 350 163 525 215 696 252 830 22 83 72 247 110 365 37 118 98 312
135 430 128 415 216 673 308 900 l42 104 2 -99 c2 -55 9 -372 18 -705z m2356
-2466 c-9 -28 -9 -29 -10 -3 -1 14 2 29 6 32 11 12 13 2 4 -29z m59 1 c0 -3
-2 -5 -5 -5 -3 0 -5 2 -5 5 0 3 2 5 5 5 3 0 5 -2 5 -5z m-1130 -107 c0 -5 -4
-8 -10 -8 -5 0 -10 10 -10 23 0 18 2 19 10 7 5 -8 10 -18 10 -22z"/>
<path d="M10020 1159 c-90 -40 -134 -107 -134 -207 -1 -59 1 -66 32 -93 98
-88 292 45 292 201 0 53 -12 86 -39 107 -24 18 -100 14 -151 -8z m134 -35 c36
-36 10 -150 -46 -200 -56 -51 -134 -69 -174 -40 -25 19 -26 94 0 160 16 42 25
51 70 72 59 28 127 31 150 8z"/>
<path d="M8988 1112 c-46 -34 -151 -151 -189 -210 -41 -65 -40 -128 1 -172 26
-28 35 -32 62 -26 65 13 110 85 73 116 -21 18 -89 24 -115 10 -20 -11 -21 -10
-15 12 18 60 157 227 211 253 19 9 34 22 34 30 0 22 -20 18 -62 -13z m-82
-324 c9 -14 -31 -48 -56 -48 -19 0 -53 43 -43 54 11 11 92 6 99 -6z"/>
<path d="M5118 1003 c-15 -10 -30 -24 -33 -31 -10 -26 6 -32 31 -13 34 27 81
36 100 20 12 -9 14 -24 10 -53 -3 -23 -2 -47 3 -55 5 -8 35 -18 66 -22 60 -8
95 -30 95 -60 0 -22 -61 -68 -142 -110 -69 -35 -78 -36 -71 -6 4 20 3 20 -22
-7 -14 -15 -24 -33 -22 -40 5 -13 71 -10 101 6 56 27 176 114 184 133 23 49
-37 108 -124 122 -33 6 -34 7 -32 51 1 36 -3 49 -21 64 -29 23 -87 23 -123 1z"/>
<path d="M7655 940 c-10 -11 -25 -22 -34 -25 -13 -4 -16 -14 -13 -43 5 -47 15
-58 54 -66 44 -9 58 -24 58 -60 0 -40 -37 -78 -75 -78 -19 0 -25 -5 -23 -17 3
-11 13 -16 38 -14 78 4 121 113 65 168 -13 14 -31 25 -40 25 -9 0 -25 5 -35
10 -16 9 -18 14 -9 34 10 21 19 24 102 29 94 5 147 19 147 37 0 9 -22 9 -172
-5 -38 -3 -46 -1 -41 11 7 20 -1 18 -22 -6z"/>
<path d="M6452 907 c-7 -16 -12 -34 -12 -42 0 -7 -12 -27 -26 -44 -35 -42 -42
-91 -15 -115 17 -15 31 -18 76 -13 l55 6 -6 -54 c-8 -64 1 -105 22 -105 11 0
14 8 12 28 -4 42 13 225 23 244 5 10 5 19 0 22 -16 10 -41 -24 -47 -65 l-7
-39 -59 0 c-60 0 -60 0 -54 26 4 14 18 43 32 64 19 28 24 48 22 76 l-4 39 -12
-28z"/>
<path d="M4083 845 l-28 -25 62 7 c119 11 142 -16 81 -97 -84 -110 -99 -134
-96 -159 3 -22 10 -27 48 -34 100 -18 270 13 270 49 0 17 0 17 -85 -1 -74 -16
-148 -18 -178 -6 -16 6 -15 10 12 46 108 142 121 176 78 219 -22 22 -35 26
-81 26 -44 0 -60 -5 -83 -25z"/>
<path d="M2835 810 c-4 -6 -2 -25 4 -43 9 -25 8 -64 -3 -153 -12 -104 -9 -150
9 -133 8 8 35 205 35 255 0 63 -26 105 -45 74z"/>
<path d="M1163 705 c-62 -30 -73 -47 -73 -115 0 -46 4 -56 35 -87 32 -32 40
-35 76 -30 102 14 188 134 149 208 -14 26 -62 49 -102 49 -18 0 -57 -12 -85
-25z m150 -33 c50 -44 -45 -172 -126 -172 -30 0 -65 37 -73 78 -5 26 -2 38 17
59 52 56 139 72 182 35z"/>
</g>
</svg>
